<?xml version="1.0" encoding="UTF-8" standalone="no"?>
<svg
   width="1440"
   height="1024"
   fill="none"
   version="1.1"
   id="svg5"
   sodipodi:docname="background.svg"
   inkscape:version="1.4 (e7c3feb1, 2024-10-09)"
   xmlns:inkscape="http://www.inkscape.org/namespaces/inkscape"
   xmlns:sodipodi="http://sodipodi.sourceforge.net/DTD/sodipodi-0.dtd"
   xmlns:xlink="http://www.w3.org/1999/xlink"
   xmlns="http://www.w3.org/2000/svg"
   xmlns:svg="http://www.w3.org/2000/svg">
  <sodipodi:namedview
     id="namedview5"
     pagecolor="#ffffff"
     bordercolor="#000000"
     borderopacity="0.25"
     inkscape:showpageshadow="2"
     inkscape:pageopacity="0.0"
     inkscape:pagecheckerboard="0"
     inkscape:deskcolor="#d1d1d1"
     inkscape:zoom="0.19376807"
     inkscape:cx="606.39506"
     inkscape:cy="1504.3758"
     inkscape:window-width="1472"
     inkscape:window-height="828"
     inkscape:window-x="0"
     inkscape:window-y="38"
     inkscape:window-maximized="1"
     inkscape:current-layer="svg5" />
  <path
     fill="url(#a)"
     fill-rule="evenodd"
     d="m 92.635544,785.96554 c 91.819996,-72.02 225.520006,-29.38 341.199996,-44.74 116.38,-15.45 248.71,-115.87 343.15,-46.11 102.9,76.02 44.74,246.76 90.31,366.31006 29.83,78.24 90.48,136.14 129.48,210.23 57.91996,109.99 169.66996,208.23 155.89996,331.77 -13.52,121.26 -103.42,264.33 -224.22996,281.37 -141.96,20.03 -232.72,-220.96 -374.06,-196.99 -151.69999,25.73 -172.67999,330.24 -325.85,315.72 -128.599996,-12.2 -110.9,-230.73 -128.15,-358.76 -12.159996,-90.14 65.87,-176.25 44.1,-264.57 -26.42,-107.2 -167.119996,-163.46 -176.719996,-273.45 -10.15,-116.29004 33.01000033,-248.75006 124.87,-320.79006 z"
     clip-rule="evenodd"
     style="opacity:0.154;fill:url(#a)"
     id="path1" />
  <path
     fill="url(#b)"
     fill-rule="evenodd"
     d="m 1165.4731,-132.74244 c 146.42,-19.45 275.33,-155.84 413.5,-103.59 188.09,71.13 409,212.640002 407.06,413.88 -1.94,201.25 -259.28,278.6 -414.96,405.96 -130,106.35 -240.24,294.39 -405.6,265.3 -163.7,-28.8 -161.93,-274.12 -284.33999,-386.66 -134.95,-124.06 -436,-101.46 -445.82,-284.6 -9.68,-180.3799982 247.41,-246.299998 413.54,-316.9 101.01,-42.93 207.82999,21.06 316.61999,6.61 z"
     clip-rule="evenodd"
     style="opacity:0.154;fill:url(#b)"
     id="path2" />
  <path
     fill="url(#b)"
     fill-rule="evenodd"
     d="M 85.709917,-181.43592 C 164.70203,-56.626602 342.54681,3.3004478 352.97626,150.65118 367.17165,351.23985 331.20589,611.11054 147.65783,693.64182 -35.899306,776.1773 -213.92813,574.89979 -394.78634,486.88195 -545.80995,413.38235 -762.73513,392.04305 -805.58396,229.70349 -848.00081,68.992748 -624.49724,-32.156582 -573.57915,-190.45 c 56.12618,-174.5057 -90.49574,-438.40692 71.69077,-524.03534 159.73895,-84.34522 327.28407,121.4929 460.978666,242.77476 81.292281,73.73988 67.929753,197.54083 126.619631,290.27466 z"
     clip-rule="evenodd"
     style="opacity:0.154;fill:url(#linearGradient5)"
     id="path2-3" />
  <defs
     id="defs5">
    <linearGradient
       id="linearGradient7"
       x1="373"
       x2="1995.44"
       y1="1100"
       y2="118.03"
       gradientUnits="userSpaceOnUse"
       gradientTransform="translate(62.04311,-248.17244)">
      <stop
         stop-color="#D83333"
         id="stop6"
         offset="0"
         style="stop-color:#28e922;stop-opacity:1;" />
      <stop
         offset="1"
         stop-color="#F041FF"
         id="stop7"
         style="stop-color:#41ff98;stop-opacity:1;" />
    </linearGradient>
    <linearGradient
       id="b"
       x1="373"
       x2="1995.44"
       y1="1100"
       y2="118.03"
       gradientUnits="userSpaceOnUse"
       gradientTransform="translate(62.04311,-248.17244)">
      <stop
         stop-color="#D83333"
         id="stop2" />
      <stop
         offset="1"
         stop-color="#F041FF"
         id="stop3" />
    </linearGradient>
    <linearGradient
       id="a"
       x1="107.37"
       x2="1130.66"
       y1="1993.35"
       y2="1026.31"
       gradientUnits="userSpaceOnUse"
       gradientTransform="translate(310.21555,310.21554)">
      <stop
         stop-color="#3245FF"
         id="stop4" />
      <stop
         offset="1"
         stop-color="#BC52EE"
         id="stop5" />
    </linearGradient>
    <linearGradient
       inkscape:collect="always"
       xlink:href="#linearGradient7"
       id="linearGradient5"
       gradientUnits="userSpaceOnUse"
       gradientTransform="rotate(65.236891,826.50355,-828.12113)"
       x1="373"
       y1="1100"
       x2="1995.44"
       y2="118.03" />
  </defs>
</svg>
